<svg width="216" height="58" viewBox="0 0 216 58" fill="none" xmlns="http://www.w3.org/2000/svg">
<path d="M76.688 39.36C77.664 39.568 78.448 40.056 79.04 40.824C79.632 41.576 79.928 42.44 79.928 43.416C79.928 44.824 79.432 45.944 78.44 46.776C77.464 47.592 76.096 48 74.336 48H66.488V31.152H74.072C75.784 31.152 77.12 31.544 78.08 32.328C79.056 33.112 79.544 34.176 79.544 35.52C79.544 36.512 79.28 37.336 78.752 37.992C78.24 38.648 77.552 39.104 76.688 39.36ZM70.592 37.968H73.28C73.952 37.968 74.464 37.824 74.816 37.536C75.184 37.232 75.368 36.792 75.368 36.216C75.368 35.64 75.184 35.2 74.816 34.896C74.464 34.592 73.952 34.44 73.28 34.44H70.592V37.968ZM73.616 44.688C74.304 44.688 74.832 44.536 75.2 44.232C75.584 43.912 75.776 43.456 75.776 42.864C75.776 42.272 75.576 41.808 75.176 41.472C74.792 41.136 74.256 40.968 73.568 40.968H70.592V44.688H73.616ZM95.5323 34.608V48H91.4283V46.176C91.0123 46.768 90.4443 47.248 89.7243 47.616C89.0203 47.968 88.2363 48.144 87.3723 48.144C86.3483 48.144 85.4443 47.92 84.6603 47.472C83.8763 47.008 83.2683 46.344 82.8363 45.48C82.4043 44.616 82.1883 43.6 82.1883 42.432V34.608H86.2683V41.88C86.2683 42.776 86.5003 43.472 86.9643 43.968C87.4283 44.464 88.0523 44.712 88.8363 44.712C89.6363 44.712 90.2683 44.464 90.7323 43.968C91.1963 43.472 91.4283 42.776 91.4283 41.88V34.608H95.5323ZM103.928 48.192C102.76 48.192 101.72 47.992 100.808 47.592C99.8962 47.192 99.1762 46.648 98.6482 45.96C98.1202 45.256 97.8242 44.472 97.7602 43.608H101.816C101.864 44.072 102.08 44.448 102.464 44.736C102.848 45.024 103.32 45.168 103.88 45.168C104.392 45.168 104.784 45.072 105.056 44.88C105.344 44.672 105.488 44.408 105.488 44.088C105.488 43.704 105.288 43.424 104.888 43.248C104.488 43.056 103.84 42.848 102.944 42.624C101.984 42.4 101.184 42.168 100.544 41.928C99.9042 41.672 99.3522 41.28 98.8882 40.752C98.4242 40.208 98.1922 39.48 98.1922 38.568C98.1922 37.8 98.4002 37.104 98.8162 36.48C99.2482 35.84 99.8722 35.336 100.688 34.968C101.52 34.6 102.504 34.416 103.64 34.416C105.32 34.416 106.64 34.832 107.6 35.664C108.576 36.496 109.136 37.6 109.28 38.976H105.488C105.424 38.512 105.216 38.144 104.864 37.872C104.528 37.6 104.08 37.464 103.52 37.464C103.04 37.464 102.672 37.56 102.416 37.752C102.16 37.928 102.032 38.176 102.032 38.496C102.032 38.88 102.232 39.168 102.632 39.36C103.048 39.552 103.688 39.744 104.552 39.936C105.544 40.192 106.352 40.448 106.976 40.704C107.6 40.944 108.144 41.344 108.608 41.904C109.088 42.448 109.336 43.184 109.352 44.112C109.352 44.896 109.128 45.6 108.68 46.224C108.248 46.832 107.616 47.312 106.784 47.664C105.968 48.016 105.016 48.192 103.928 48.192ZM111.047 41.304C111.047 39.912 111.327 38.696 111.887 37.656C112.463 36.616 113.255 35.816 114.263 35.256C115.287 34.696 116.455 34.416 117.767 34.416C119.447 34.416 120.847 34.856 121.967 35.736C123.103 36.616 123.847 37.856 124.199 39.456H119.831C119.463 38.432 118.751 37.92 117.695 37.92C116.943 37.92 116.343 38.216 115.895 38.808C115.447 39.384 115.223 40.216 115.223 41.304C115.223 42.392 115.447 43.232 115.895 43.824C116.343 44.4 116.943 44.688 117.695 44.688C118.751 44.688 119.463 44.176 119.831 43.152H124.199C123.847 44.72 123.103 45.952 121.967 46.848C120.831 47.744 119.431 48.192 117.767 48.192C116.455 48.192 115.287 47.912 114.263 47.352C113.255 46.792 112.463 45.992 111.887 44.952C111.327 43.912 111.047 42.696 111.047 41.304ZM125.578 41.28C125.578 39.904 125.834 38.696 126.346 37.656C126.874 36.616 127.586 35.816 128.482 35.256C129.378 34.696 130.378 34.416 131.482 34.416C132.426 34.416 133.25 34.608 133.954 34.992C134.674 35.376 135.226 35.88 135.61 36.504V34.608H139.714V48H135.61V46.104C135.21 46.728 134.65 47.232 133.93 47.616C133.226 48 132.402 48.192 131.458 48.192C130.37 48.192 129.378 47.912 128.482 47.352C127.586 46.776 126.874 45.968 126.346 44.928C125.834 43.872 125.578 42.656 125.578 41.28ZM135.61 41.304C135.61 40.28 135.322 39.472 134.746 38.88C134.186 38.288 133.498 37.992 132.682 37.992C131.866 37.992 131.17 38.288 130.594 38.88C130.034 39.456 129.754 40.256 129.754 41.28C129.754 42.304 130.034 43.12 130.594 43.728C131.17 44.32 131.866 44.616 132.682 44.616C133.498 44.616 134.186 44.32 134.746 43.728C135.322 43.136 135.61 42.328 135.61 41.304ZM153.651 31.152V34.44H146.787V37.992H151.923V41.184H146.787V48H142.683V31.152H153.651ZM161.904 48.192C160.592 48.192 159.408 47.912 158.352 47.352C157.312 46.792 156.488 45.992 155.88 44.952C155.288 43.912 154.992 42.696 154.992 41.304C154.992 39.928 155.296 38.72 155.904 37.68C156.512 36.624 157.344 35.816 158.4 35.256C159.456 34.696 160.64 34.416 161.952 34.416C163.264 34.416 164.448 34.696 165.504 35.256C166.56 35.816 167.392 36.624 168 37.68C168.608 38.72 168.912 39.928 168.912 41.304C168.912 42.68 168.6 43.896 167.976 44.952C167.368 45.992 166.528 46.792 165.456 47.352C164.4 47.912 163.216 48.192 161.904 48.192ZM161.904 44.64C162.688 44.64 163.352 44.352 163.896 43.776C164.456 43.2 164.736 42.376 164.736 41.304C164.736 40.232 164.464 39.408 163.92 38.832C163.392 38.256 162.736 37.968 161.952 37.968C161.152 37.968 160.488 38.256 159.96 38.832C159.432 39.392 159.168 40.216 159.168 41.304C159.168 42.376 159.424 43.2 159.936 43.776C160.464 44.352 161.12 44.64 161.904 44.64ZM177.186 48.192C175.874 48.192 174.69 47.912 173.634 47.352C172.594 46.792 171.77 45.992 171.162 44.952C170.57 43.912 170.274 42.696 170.274 41.304C170.274 39.928 170.578 38.72 171.186 37.68C171.794 36.624 172.626 35.816 173.682 35.256C174.738 34.696 175.922 34.416 177.234 34.416C178.546 34.416 179.73 34.696 180.786 35.256C181.842 35.816 182.674 36.624 183.282 37.68C183.89 38.72 184.194 39.928 184.194 41.304C184.194 42.68 183.882 43.896 183.258 44.952C182.65 45.992 181.81 46.792 180.738 47.352C179.682 47.912 178.498 48.192 177.186 48.192ZM177.186 44.64C177.97 44.64 178.634 44.352 179.178 43.776C179.738 43.2 180.018 42.376 180.018 41.304C180.018 40.232 179.746 39.408 179.202 38.832C178.674 38.256 178.018 37.968 177.234 37.968C176.434 37.968 175.77 38.256 175.242 38.832C174.714 39.392 174.45 40.216 174.45 41.304C174.45 42.376 174.706 43.2 175.218 43.776C175.746 44.352 176.402 44.64 177.186 44.64ZM185.555 41.28C185.555 39.904 185.811 38.696 186.323 37.656C186.851 36.616 187.563 35.816 188.459 35.256C189.355 34.696 190.355 34.416 191.459 34.416C192.339 34.416 193.139 34.6 193.859 34.968C194.595 35.336 195.171 35.832 195.587 36.456V30.24H199.691V48H195.587V46.08C195.203 46.72 194.651 47.232 193.931 47.616C193.227 48 192.403 48.192 191.459 48.192C190.355 48.192 189.355 47.912 188.459 47.352C187.563 46.776 186.851 45.968 186.323 44.928C185.811 43.872 185.555 42.656 185.555 41.28ZM195.587 41.304C195.587 40.28 195.299 39.472 194.723 38.88C194.163 38.288 193.475 37.992 192.659 37.992C191.843 37.992 191.147 38.288 190.571 38.88C190.011 39.456 189.731 40.256 189.731 41.28C189.731 42.304 190.011 43.12 190.571 43.728C191.147 44.32 191.843 44.616 192.659 44.616C193.475 44.616 194.163 44.32 194.723 43.728C195.299 43.136 195.587 42.328 195.587 41.304Z" fill="white"/>
<path d="M48.75 39.875H23.4051L18.2 43.8398L12.9949 39.875H2.03125V42.5938C2.03125 46.059 4.71377 48.882 8.03105 48.9375C8.33955 50.6503 9.08603 52.1977 10.2096 53.4087C11.8714 55.1997 14.2873 56.1875 17.0117 56.1875H33.7695C36.4939 56.1875 38.9099 55.1997 40.5717 53.4064C41.6952 52.1955 42.4417 50.648 42.7502 48.9352C44.5123 48.9069 46.0954 48.097 47.1936 46.8248C48.2192 45.6053 48.7662 44.1184 48.75 42.5938V39.875Z" fill="#F0B212"/>
<path d="M13.3301 36.25L18.1962 39.4434L23.1055 36.25H48.75V35.3437C48.7486 34.2996 48.3437 33.2877 47.6037 32.4788C46.8637 31.6699 45.8337 31.1134 44.6875 30.9031C44.5834 27.5398 43.0371 24.7248 40.1794 22.7469C37.5362 20.9072 34.0044 19.9375 29.9609 19.9375H20.8203C12.1596 19.9375 6.29307 24.3294 6.09375 30.9031C4.94751 31.1134 3.91757 31.6699 3.17755 32.4788C2.43753 33.2877 2.03268 34.2996 2.03125 35.3437V36.25H13.3301Z" fill="#F0B212"/>
<path d="M58.7895 10.875H49.32L50.4524 6.83539L56.1133 5.09766L54.8438 1.8125L46.9727 4.07812L45.1331 10.875H26.4062V14.5H28.7866L29.0228 16.3125H29.9609C34.9121 16.3125 39.3123 17.5473 42.6715 19.8831C44.5399 21.1677 46.0545 22.8164 47.0996 24.7032C47.7436 25.8738 48.2021 27.1186 48.4618 28.4019C50.3536 29.4412 51.7564 31.0597 52.408 32.9548C53.0597 34.8499 52.9155 36.892 52.0025 38.6991C52.5374 39.9422 52.812 41.2622 52.8125 42.5938C52.8125 45.1245 51.8477 47.5362 50.0957 49.385C49.0115 50.5375 47.6228 51.431 46.0548 51.9848C45.5204 53.3435 44.7243 54.6086 43.7023 55.723C43.5525 55.8839 43.3989 56.0414 43.2415 56.1932H52.8125C54.8438 56.1932 55.7324 55.2869 55.9863 53.5877L60.6074 14.5057H62.9688V10.875H58.7895Z" fill="#F0B212"/>
</svg>
